<?xml version="1.0" ?><svg viewBox="0 0 50 50" xmlns="http://www.w3.org/2000/svg"><defs><style>.a{fill:#c0dceb;}.b{fill:#e8f4fa;}.c{fill:none;}.c,.f,.i,.j,.n{stroke:#45413c;stroke-linecap:round;stroke-linejoin:round;stroke-width:1.25px;}.d{fill:#f0f0f0;}.e{fill:#fff;}.f,.g{fill:#a6fbff;}.h{fill:#e5feff;}.i{fill:#ffe500;}.j,.k{fill:#ff6242;}.l{fill:#656769;}.m{fill:#87898c;}.n{fill:#8ca4b8;}</style></defs><title/><path class="a" d="M3.25,32.75h20a0,0,0,0,1,0,0v5.5a0,0,0,0,1,0,0h-20a1,1,0,0,1-1-1v-3.5A1,1,0,0,1,3.25,32.75Z"/><path class="b" d="M3.25,32.75a1,1,0,0,0-1,1v2a1,1,0,0,1,1-1h20v-2Z"/><path class="c" d="M3.25,32.75h20a0,0,0,0,1,0,0v5.5a0,0,0,0,1,0,0h-20a1,1,0,0,1-1-1v-3.5A1,1,0,0,1,3.25,32.75Z"/><path class="d" d="M24.25,8.25h22.5a1,1,0,0,1,1,1v28a1,1,0,0,1-1,1H23.25a0,0,0,0,1,0,0v-29A1,1,0,0,1,24.25,8.25Z"/><path class="e" d="M47.75,9.25a1,1,0,0,0-1-1H24.25a1,1,0,0,0-1,1v5.5a1,1,0,0,1,1-1h22.5a1,1,0,0,1,1,1Z"/><path class="c" d="M24.25,8.25h22.5a1,1,0,0,1,1,1v28a1,1,0,0,1-1,1H23.25a0,0,0,0,1,0,0v-29A1,1,0,0,1,24.25,8.25Z"/><path class="d" d="M3.25,29.75c0-2,.5-3.5,3.5-5,2.5-6.5,3-9.5,6-9.5h10.5v17.5h-20Z"/><path class="e" d="M12.75,15.25c-3,0-3.5,3-6,9.5-3,1.5-3.5,3-3.5,5v3h.014c.091-1.755.742-3.128,3.486-4.5,2.5-6.5,3-9.5,6-9.5h10.5v-3.5Z"/><path class="c" d="M3.25,29.75c0-2,.5-3.5,3.5-5,2.5-6.5,3-9.5,6-9.5h10.5v17.5h-20Z"/><path class="f" d="M11.75,17.75H9.472c-.779,1.563-1.519,3.872-2.722,7h4Z"/><polygon class="g" points="14.75 17.75 13.75 24.75 20.25 24.75 20.25 17.75 14.75 17.75"/><polygon class="h" points="20.25 19.25 20.25 17.75 14.75 17.75 13.75 24.75 14.75 24.75 20.25 19.25"/><polygon class="c" points="14.75 17.75 13.75 24.75 20.25 24.75 20.25 17.75 14.75 17.75"/><rect class="i" height="3" width="2.5" x="3.25" y="29.75"/><rect class="j" height="5.5" width="14" x="9.25" y="27.25"/><rect class="j" height="5.5" width="24.5" x="23.25" y="27.25"/><path class="j" d="M41.25,16.75a1,1,0,0,0-1-1h-2v-2a1,1,0,0,0-1-1h-2.5a1,1,0,0,0-1,1v2h-2a1,1,0,0,0-1,1v2.5a1,1,0,0,0,1,1h2v2a1,1,0,0,0,1,1h2.5a1,1,0,0,0,1-1v-2h2a1,1,0,0,0,1-1Z"/><path class="k" d="M17.75,10.25a2.5,2.5,0,0,0-2.5,2.5v2.5h5v-2.5A2.5,2.5,0,0,0,17.75,10.25Z"/><path class="c" d="M17.75,10.25a2.5,2.5,0,0,0-2.5,2.5v2.5h5v-2.5A2.5,2.5,0,0,0,17.75,10.25Z"/><circle class="l" cx="10.75" cy="36.75" r="5"/><path class="m" d="M10.75,33.75a5,5,0,0,1,4.9,4,5,5,0,1,0-9.8,0A5,5,0,0,1,10.75,33.75Z"/><circle class="c" cx="10.75" cy="36.75" r="5"/><circle class="n" cx="10.75" cy="36.75" r="2"/><circle class="l" cx="38.25" cy="36.75" r="5"/><path class="m" d="M38.25,33.75a5,5,0,0,1,4.9,4,5,5,0,1,0-9.8,0A5,5,0,0,1,38.25,33.75Z"/><circle class="c" cx="38.25" cy="36.75" r="5"/><circle class="n" cx="38.25" cy="36.75" r="2"/></svg>