<?xml version="1.0" ?><svg data-name="Слой 1" id="Слой_1" viewBox="0 0 128 128" xmlns="http://www.w3.org/2000/svg"><defs><style>.cls-1{fill:#e0e0e0;}.cls-2{fill:#fff;}.cls-3{fill:#404040;}.cls-4{fill:#fafafa;}</style></defs><title/><rect class="cls-1" height="64" width="96" x="2" y="2"/><path class="cls-2" d="M20.32,57.1c.06.57.51.84,1.23.86,3.78.1,15-6.68,17.19-12.79,2.57-7.27,4.33-30.11.81-31.71S17.34,29.75,20.32,57.1Z"/><path class="cls-2" d="M79.68,57.1c-.08.71-.76.95-1.83.82C73.61,57.4,63.32,51,61.26,45.17c-2.57-7.27-4.33-30.11-.81-31.71S82.66,29.75,79.68,57.1Z"/><path class="cls-3" d="M65.34,13.19C63,11.5,61.08,11,59.62,11.64c-.93.42-2.89,1.32-3.13,9.74A38.63,38.63,0,0,0,52,19.67V10a2,2,0,0,0-4,0v9.71a38,38,0,0,0-4.49,1.71c-.24-8.42-2.21-9.32-3.13-9.74C38.92,11,37,11.5,34.66,13.19,27.09,18.67,16,35.5,18.33,57.31h0c.22,2,1.74,2.65,3.3,2.65,4.94,0,16.6-7.37,19-14.12,1.31-3.71,2.47-11.34,2.81-18.56,0-.52,0-1,.06-1.49A31.83,31.83,0,0,1,50,23.3a31.42,31.42,0,0,1,6.52,2.49c0,.48,0,1,.06,1.49.34,7.22,1.5,14.85,2.81,18.56,2.39,6.77,13.55,13.5,18.23,14.07,1.89.23,3.83-.5,4.06-2.6C84,35.5,72.91,18.67,65.34,13.19ZM36.85,44.5c-1.73,4.9-10.93,10.75-14.64,11.4A48.74,48.74,0,0,1,32.79,20.49c2.75-3.26,5-4.7,5.91-5C40.44,18.9,39.32,37.54,36.85,44.5ZM77.79,55.89C74,55.18,64.87,49.37,63.15,44.5c-2.47-7-3.59-25.6-1.85-29.06,1,.35,3.16,1.79,5.91,5A48.73,48.73,0,0,1,77.79,55.89Z"/><rect class="cls-4" height="32" width="96" x="2" y="78"/><circle class="cls-1" cx="30" cy="94" r="8"/><circle class="cls-1" cx="70" cy="94" r="8"/><rect class="cls-1" height="20" transform="translate(244 72) rotate(-180)" width="8" x="118" y="26"/><path class="cls-3" d="M126,24h-2V14A10,10,0,0,0,114,4h-6a2,2,0,0,0,0,4h6a6,6,0,0,1,6,6V24h-2a2,2,0,0,0-2,2V46a2,2,0,0,0,2,2h2v62a14,14,0,0,1-14,14H84c-7.49,0-11.23-5.75-11.89-12H98a2,2,0,0,0,2-2V78a2,2,0,0,0-2-2H52V68H98a2,2,0,0,0,2-2V2a2,2,0,0,0-2-2H2A2,2,0,0,0,0,2V66a2,2,0,0,0,2,2H48v8H2a2,2,0,0,0-2,2v32a2,2,0,0,0,2,2H28.12A18,18,0,0,0,46,128h60a18,18,0,0,0,18-18V48h2a2,2,0,0,0,2-2V26A2,2,0,0,0,126,24ZM4,4H96V64H4ZM70,92a2,2,0,0,0-2,2v5.65a6,6,0,1,1,4,0V94A2,2,0,0,0,70,92ZM4,80H96v28H72v-4.2a10,10,0,1,0-4,0V108H32v-4.2a10,10,0,1,0-4,0V108H4ZM30,92a2,2,0,0,0-2,2v5.65a6,6,0,1,1,4,0V94A2,2,0,0,0,30,92Zm2.16,20H68.08a18.08,18.08,0,0,0,5.4,12H46A14,14,0,0,1,32.16,112ZM124,44h-4V28h4Z"/></svg>