<?xml version="1.0" ?><!DOCTYPE svg  PUBLIC '-//W3C//DTD SVG 1.1//EN'  'http://www.w3.org/Graphics/SVG/1.1/DTD/svg11.dtd'><svg enable-background="new 0 0 48 48" height="48px" version="1.1" viewBox="0 0 48 48" width="48px" xml:space="preserve" xmlns="http://www.w3.org/2000/svg" xmlns:xlink="http://www.w3.org/1999/xlink"><g id="apple"><path d="M35.999,9.758C32.024,8.271,27.707,9.042,24,11.453c-3.707-2.411-8.025-3.181-11.999-1.694   c-7.629,2.855-11.08,12.89-7.708,22.414C7.634,41.609,16.418,46.992,24,44.313c7.582,2.679,16.367-2.703,19.707-12.14   C47.079,22.648,43.628,12.613,35.999,9.758L35.999,9.758z" fill="#FF3D00"/><path d="M14.87,23.625c-1.316,3.399-4.263,5.427-6.579,4.53c-2.318-0.897-3.13-4.38-1.814-7.78   c1.316-3.399,4.262-5.427,6.58-4.53C15.374,16.743,16.186,20.226,14.87,23.625L14.87,23.625z" fill="#FF6E40"/><path d="M39.506,11.815c-0.122-0.101-0.249-0.197-0.375-0.294c-0.209-0.165-0.421-0.328-0.643-0.473   c-0.291-0.195-0.592-0.376-0.899-0.546c-0.135-0.073-0.27-0.144-0.407-0.214c-0.384-0.193-0.774-0.376-1.184-0.529   c-3.103-1.162-6.412-0.931-9.48,0.368c-0.426,0.18-0.85,0.374-1.265,0.595c-0.425,0.222-0.843,0.464-1.253,0.731   c-0.423-0.275-0.854-0.524-1.292-0.753c-0.286-0.152-0.581-0.281-0.873-0.413c-0.133-0.059-0.263-0.125-0.396-0.18   c-0.383-0.161-0.771-0.297-1.159-0.424c-0.033-0.01-0.065-0.022-0.1-0.033c-0.424-0.134-0.852-0.245-1.28-0.337h-0.001   c-1.469-0.315-2.96-0.378-4.435-0.164c-0.217,0.03-0.433,0.064-0.647,0.106c-0.181,0.037-0.361,0.075-0.541,0.12   c-0.428,0.105-0.854,0.226-1.275,0.384c-1.227,0.459-2.332,1.12-3.332,1.919c1.046,0.914,2.261,1.753,3.662,2.378   c2.142,0.953,4.366,1.257,6.336,1.257c3.378,0,6.008-0.896,6.179-0.956l0.482-0.168c1.359-0.474,2.828-0.6,4.236-0.301   c8.112,1.721,9.64,9.194,8.643,14.285C34.988,44.6,15.179,42.917,8.444,39.276c0,0,0,0.001,0.001,0.001   c0.26,0.294,0.527,0.578,0.8,0.853c0.011,0.011,0.021,0.021,0.032,0.032c0.792,0.792,1.636,1.495,2.517,2.106   c0.073,0.05,0.146,0.1,0.221,0.149c0.794,0.534,1.618,0.986,2.462,1.36c0.159,0.07,0.316,0.141,0.477,0.206   c0.225,0.09,0.449,0.174,0.675,0.253c0.221,0.076,0.442,0.143,0.664,0.208c0.246,0.072,0.492,0.141,0.74,0.199   c0.317,0.074,0.636,0.139,0.955,0.19c0.166,0.026,0.332,0.045,0.498,0.065c0.293,0.035,0.585,0.059,0.878,0.074   c0.137,0.007,0.274,0.018,0.412,0.02c0.417,0.007,0.834-0.006,1.251-0.042c0.104-0.008,0.205-0.025,0.308-0.037   c0.342-0.038,0.682-0.091,1.021-0.158c0.123-0.025,0.246-0.049,0.368-0.078c0.428-0.1,0.854-0.215,1.277-0.364   c7.582,2.679,16.366-2.703,19.707-12.14C45.656,26.666,44.583,16.264,39.506,11.815L39.506,11.815z" fill="#DD2C00"/><path d="M27.968,45.989c-1.334,0-2.667-0.201-3.968-0.621c-7.997,2.584-17.199-3.116-20.65-12.863   c-2.613-7.38-1.38-15.305,3.14-20.19c0.135-0.145,0.269-0.284,0.405-0.42c0.391-0.391,1.023-0.391,1.414,0s0.391,1.023,0,1.414   c-0.12,0.12-0.238,0.243-0.354,0.368C3.936,18.02,2.868,25.15,5.236,31.838c3.13,8.844,11.396,14.017,18.431,11.532   c0.215-0.076,0.451-0.076,0.666,0c7.036,2.485,15.301-2.688,18.431-11.532c3.186-8.998-0.006-18.483-7.116-21.144   c-2.308-0.862-4.852-0.92-7.358-0.165c-0.527,0.158-1.086-0.14-1.246-0.669c-0.159-0.529,0.141-1.086,0.669-1.246   c2.928-0.882,5.916-0.81,8.635,0.207c8.125,3.04,11.848,13.665,8.301,23.684C41.761,40.667,34.837,45.989,27.968,45.989z" fill="#37474F"/><path d="M16.806,4.006c4.793,2.134,7.052,7.518,7.052,7.518s-5.513,1.924-10.306-0.21   C8.759,9.18,6.5,3.796,6.5,3.796S12.013,1.872,16.806,4.006L16.806,4.006z" fill="#00C853"/><path d="M20.357,7.024c0,0-0.168-0.395-0.499-1.004c-0.871-0.78-1.885-1.494-3.053-2.014   C12.013,1.873,6.5,3.796,6.5,3.796S6.668,4.191,6.999,4.8c0.87,0.78,1.886,1.494,3.053,2.014   C14.845,8.948,20.357,7.024,20.357,7.024L20.357,7.024z" fill="#00E676"/><path d="M18.682,13.324c-1.729,0-3.674-0.266-5.537-1.096c-5.097-2.27-7.469-7.81-7.567-8.045   C5.471,3.929,5.474,3.642,5.586,3.39S5.91,2.943,6.17,2.852c0.24-0.084,5.946-2.028,11.042,0.241   c1.356,0.604,2.642,1.498,3.822,2.657c0.394,0.387,0.399,1.021,0.012,1.415c-0.388,0.393-1.021,0.398-1.415,0.012   c-1.008-0.991-2.096-1.75-3.233-2.257C13.26,3.521,9.706,4.035,7.943,4.439c0.88,1.58,2.876,4.564,6.016,5.962   c4.358,1.941,9.519,0.197,9.571,0.179c0.521-0.178,1.09,0.096,1.272,0.617c0.181,0.521-0.093,1.09-0.614,1.272   C24.035,12.522,21.683,13.324,18.682,13.324z" fill="#37474F"/><path d="M24,12.5c-0.552,0-1-0.448-1-1V8c0-3.309,2.691-6,6-6c0.552,0,1,0.448,1,1s-0.448,1-1,1   c-2.206,0-4,1.794-4,4v3.5C25,12.052,24.552,12.5,24,12.5z" fill="#37474F"/></g></svg>