<?xml version="1.0" ?><!DOCTYPE svg  PUBLIC '-//W3C//DTD SVG 1.1//EN'  'http://www.w3.org/Graphics/SVG/1.1/DTD/svg11.dtd'><svg enable-background="new 0 0 256 256" height="256px" id="Layer_1" version="1.1" viewBox="0 0 256 256" width="256px" xml:space="preserve" xmlns="http://www.w3.org/2000/svg" xmlns:xlink="http://www.w3.org/1999/xlink"><g><g><path d="M43.078,107.731c0.025-23.411,9.527-44.606,24.873-59.953C83.32,32.41,104.551,22.904,128,22.904     c23.451,0,44.72,9.506,60.089,24.874C203.456,63.146,213,84.378,213,107.827v40.269c0,8.258-3.411,15.761-8.845,21.193     c-5.434,5.434-12.917,8.807-21.175,8.807c-4.418,0-7.98-3.583-7.98-8.001v-72c0-4.418,3.506-8.095,7.924-8.095h3.143     c3.133,0,6.145,0.589,8.943,1.583c-3.018-12.528-9.455-23.7-18.273-32.515c-1.289-1.29-2.629-2.517-4.018-3.7     c-4.068,3.692-10.209,4.522-15.219,1.623c-18.145-10.477-40.854-10.474-58.998,0.003c-5.01,2.9-11.152,2.077-15.219-1.617     c-1.389,1.185-2.73,2.423-4.02,3.713c-8.816,8.815-15.254,19.964-18.271,32.492C63.791,90.589,66.803,90,69.934,90h3.143     C77.494,90,81,93.677,81,98.095v72c0,0.368,0,0.731,0,1.087v5.914c0,9.911,4.045,18.862,10.568,25.386     C98.09,209.003,107.092,213,117.004,213h3.502c1.775-7,8.039-11.952,15.496-11.952c8.836,0,16,7.187,16,16.024     c0,8.836-7.164,15.964-16,15.964c-7.457,0-13.721-5.036-15.496-12.036h-3.502c-12.119,0-23.121-4.894-31.09-12.862     c-7.75-7.75-12.637-18.343-12.898-30.065c-8.234-0.018-15.713-3.375-21.133-8.795c-5.434-5.433-8.807-12.93-8.807-21.188     L43.078,107.731L43.078,107.731z" fill="#3B4652"/><path d="M225.973,97h2.256c2.693,0,5.137,1.119,6.906,2.887c1.768,1.769,2.865,4.234,2.865,6.927v26.561     c0,2.693-1.098,5.064-2.865,6.832c-1.77,1.77-4.213,2.793-6.906,2.793h-2.256c-3.32,0-5.973-2.545-5.973-5.866v-34.078     C220,99.734,222.652,97,225.973,97L225.973,97z" fill="#2B79C2"/><path d="M30.027,97h-2.254c-2.695,0-5.139,1.119-6.908,2.887c-1.768,1.769-2.865,4.234-2.865,6.927v26.561     c0,2.693,1.098,5.064,2.865,6.832c1.77,1.77,4.213,2.793,6.908,2.793h2.254c3.322,0,5.973-2.545,5.973-5.866v-34.078     C36,99.734,33.35,97,30.027,97L30.027,97z" fill="#2B79C2"/></g></g></svg>