<?xml version="1.0" ?><svg enable-background="new 0 0 64 64" id="Layer_1" version="1.1" viewBox="0 0 64 64" xml:space="preserve" xmlns="http://www.w3.org/2000/svg" xmlns:xlink="http://www.w3.org/1999/xlink"><g><g><path d="M21.121,39.297l-8.775-10.284l1.742-1.487c2.3-1.962,5.755-1.689,7.718,0.611l2.935,3.439l24.095,0.3    c4.288,0.053,7.721,3.573,7.668,7.861v0H21.719L21.121,39.297z" fill="#2F7BBB"/><circle cx="10.838" cy="20.861" fill="#2F7BBB" r="5.637"/><polygon fill="#3E4753" points="8.751,29.291 8.165,29.291 8.165,39.878 17.785,39.878   "/></g><path d="M60.749,36.759L60.749,36.759c-1.182,0-2.14,0.958-2.14,2.14v3.694H5.712V30.775   c0-1.319-1.11-2.38-2.45-2.296c-1.224,0.077-2.151,1.146-2.151,2.372c0,5.767,0,23.254,0,29.021c0,1.226,0.927,2.295,2.151,2.372   c1.34,0.085,2.45-0.977,2.45-2.296v-2.74h52.897v2.828c0,1.14,0.861,2.135,1.998,2.208c1.246,0.08,2.281-0.906,2.281-2.135V38.898   C62.889,37.717,61.931,36.759,60.749,36.759z M5.712,52.554v-5.307h52.897v5.307H5.712z" fill="#3E4753"/><g><path d="M55.356,11.829h-2.673V9.156c0-0.93-0.754-1.683-1.684-1.683h-1.126c-0.93,0-1.684,0.754-1.684,1.683    v2.673h-2.673c-0.929,0-1.683,0.754-1.683,1.684v1.126c0,0.93,0.754,1.684,1.683,1.684h2.673v2.673    c0,0.93,0.754,1.683,1.684,1.683h1.126c0.93,0,1.684-0.754,1.684-1.683v-2.673h2.673c0.93,0,1.684-0.754,1.684-1.684v-1.126    C57.04,12.583,56.286,11.829,55.356,11.829L55.356,11.829z" fill="#2F7ABD"/><path d="M50.437,1.75c-6.807,0-12.326,5.518-12.326,12.326s5.518,12.326,12.326,12.326s12.326-5.518,12.326-12.326    S57.244,1.75,50.437,1.75z M50.437,23.385c-5.141,0-9.309-4.168-9.309-9.309s4.168-9.309,9.309-9.309s9.309,4.168,9.309,9.309    S55.578,23.385,50.437,23.385z" fill="#2F7ABD"/></g></g></svg>