<?xml version="1.0" ?><!DOCTYPE svg  PUBLIC '-//W3C//DTD SVG 1.1//EN'  'http://www.w3.org/Graphics/SVG/1.1/DTD/svg11.dtd'><svg enable-background="new 0 0 256 256" height="256px" id="Layer_1" version="1.1" viewBox="0 0 256 256" width="256px" xml:space="preserve" xmlns="http://www.w3.org/2000/svg" xmlns:xlink="http://www.w3.org/1999/xlink"><g><g><path d="M6014.006,3088.267h115.998v8h-115.998V3088.267L6014.006,3088.267z M6048.253,3026.123     c-2.175-2.484-1.923-6.263,0.562-8.438c2.484-2.174,6.263-1.923,8.438,0.562l16.271,18.547l45.498-40.653     c2.459-2.2,6.237-1.99,8.438,0.469c2.2,2.46,1.99,6.237-0.469,8.438l-49.842,44.535c-2.553,2.361-6.387,2.202-8.644-0.374     L6048.253,3026.123L6048.253,3026.123z M6072.014,2998.379c10.475-10.643,25.578-12.281,37.713-4.441     c-2.024,1.9-4.078,3.773-6.157,5.619c-10.026-5.205-21.213-2.217-28.413,7.275c-1.557,2.053-4.669,2.139-6.276,0.035     c-15.156-19.851-40.915-6.9-40.915,13.002c0,7.413,5.26,15.944,12.542,23.895c9.404,10.267,22.021,19.332,31.499,24.08     c9.477-4.748,22.093-13.813,31.498-24.08c5.055-5.52,9.135-11.318,11.158-16.83c3.139-2.643,6.238-5.336,9.286-8.084     c0.739,23.19-32.893,48.947-50.288,57.045c-1.092,0.51-2.297,0.472-3.311,0l0,0c-17.119-7.961-50.305-33.479-50.305-56.025     C6020.045,2993.699,6051.933,2977.85,6072.014,2998.379L6072.014,2998.379z M6014.006,3109.271h115.998v8h-115.998V3109.271     L6014.006,3109.271z" fill="#2B79C2"/><path d="M5992.949,2935.275h26.056v12h-26.056c-2.193,0-4.192,0.902-5.646,2.354     c-1.452,1.452-2.354,3.451-2.354,5.646v187.998c0,4.387,3.613,8,7.999,8h158.111c4.384,0,8-3.615,8-8v-187.998     c0-2.192-0.902-4.192-2.355-5.645c-1.453-1.453-3.452-2.355-5.645-2.355h-26.055v-12h26.055c5.506,0,10.507,2.249,14.129,5.871     c3.621,3.622,5.871,8.625,5.871,14.129v187.998c0,11.008-8.993,20-20,20h-158.111c-11.009,0-20-8.99-20-20v-187.998     c0-5.506,2.249-10.508,5.871-14.129C5982.442,2937.523,5987.443,2935.275,5992.949,2935.275L5992.949,2935.275z      M6072.006,2907.287c5.797,0,11.047,0.352,14.848,4.151c3.8,3.801,6.151,9.051,6.151,14.849l0,0h24.001v30h-90v-30h23.999l0,0     c0-5.798,2.351-11.048,6.151-14.849C6060.957,2907.639,6066.207,2907.287,6072.006,2907.287L6072.006,2907.287z      M6078.369,2919.923c-1.628-1.628-3.878-2.636-6.363-2.636c-2.486,0-4.737,1.008-6.365,2.636s-2.635,3.878-2.635,6.364     s1.007,4.736,2.635,6.364c1.525,1.526,3.6,2.507,5.901,2.624h0.926c2.302-0.117,4.376-1.098,5.901-2.624     c1.629-1.628,2.636-3.878,2.636-6.364S6079.998,2921.551,6078.369,2919.923L6078.369,2919.923z" fill="#3B4652"/></g><g><path d="M178,153.737h-52h-8v-8.001v-18h-8v26.001h-8v-26.001H44.999c-12.113,0-22,9.887-22,22v24h210v-65.757     c0-3.773-4.747-4.496-7.121-2.122C209.918,121.817,193.959,137.776,178,153.737L178,153.737z M243,93.31c0-3.313,2.687-6,6-6     s6,2.687,6,6l0,142.455h-12L243,93.31L243,93.31z M22.993,235.765v-52.027c70.001,0,140.002,0,210.003,0v52.027h-12v-40.027     H34.994v40.027H22.993L22.993,235.765z M1,136.574c0-3.313,2.686-6,6-6c3.314,0,6,2.687,6,6l0,99.19H1L1,136.574L1,136.574z" fill="#3B4652"/><path clip-rule="evenodd" d="M213.995,50.803c-10.494,0-19,8.507-19,19     c0,10.494,8.506,19,19,19c10.493,0,19-8.506,19-19C232.995,59.31,224.489,50.803,213.995,50.803L213.995,50.803z" fill="#2B79C2" fill-rule="evenodd"/><path clip-rule="evenodd" d="M158.745,127.736l27.339-27.339     c8.958-8.957,23.569-8.957,32.526,0c0.236,0.235,0.471,0.472,0.707,0.707l-26.632,26.632h0.001l-18,18.001H126v-18.001H158.745     L158.745,127.736z" fill="#2B79C2" fill-rule="evenodd"/><path d="M39.313,20.235h75.373c4.49,0,8.57,1.834,11.525,4.789c2.955,2.954,4.789,7.033,4.789,11.525v49.371     c0,4.49-1.834,8.57-4.789,11.524c-2.954,2.955-7.034,4.789-11.525,4.789H39.313c-4.49,0-8.57-1.834-11.525-4.789     c-2.955-2.954-4.789-7.034-4.789-11.524V36.55c0-4.491,1.834-8.571,4.789-11.525C30.743,22.069,34.823,20.235,39.313,20.235     L39.313,20.235z M114.685,28.234H39.313c-2.282,0-4.36,0.937-5.869,2.445c-1.509,1.509-2.445,3.587-2.445,5.87v49.371     c0,2.283,0.937,4.36,2.445,5.869c1.509,1.508,3.587,2.444,5.869,2.444h75.373c2.282,0,4.36-0.937,5.868-2.444     c1.509-1.51,2.445-3.586,2.445-5.869V36.55c0-2.283-0.937-4.361-2.445-5.87C119.045,29.172,116.967,28.234,114.685,28.234     L114.685,28.234z" fill="#3B4652"/><path d="M38.999,65.251h10.852l4.984-5.747c1.081-1.249,2.97-1.386,4.219-0.305     c0.277,0.239,0.499,0.519,0.665,0.822l0.003-0.002l4.276,7.798l8.793-28.945c0.479-1.579,2.148-2.471,3.726-1.992     c1.05,0.318,1.795,1.162,2.037,2.156h0.002l7.641,31.56l5.541-20.774c0.42-1.598,2.058-2.553,3.656-2.133     c0.899,0.236,1.594,0.857,1.956,1.641h0.001l7.365,15.922h10.282v6.001h-12.193v-0.006c-1.131-0.001-2.214-0.646-2.719-1.74     l-4.696-10.151l-6.438,24.137h-0.002c-0.272,1.027-1.083,1.877-2.189,2.145c-1.605,0.389-3.221-0.598-3.61-2.202l-7.829-32.338     l-7.616,25.07c-0.186,0.801-0.699,1.521-1.476,1.948c-1.45,0.796-3.271,0.267-4.067-1.184l-5.626-10.26l-2.916,3.363     c-0.547,0.738-1.424,1.218-2.413,1.218h-12.21V65.251L38.999,65.251z" fill="#2B79C2"/></g></g></svg>