<?xml version="1.0" ?><svg height="60" id="Biology" viewBox="0 0 60 60" width="60" xmlns="http://www.w3.org/2000/svg"><title/><circle cx="40.99999" cy="41" r="18" style="fill:#96d7ff"/><g style="opacity:0.5"><rect height="3" style="fill:#fff" width="36" x="22.99999" y="41"/><path d="M41,26A17.99179,17.99179,0,0,1,58.92425,42.5c.041-.49579.07574-.99359.07574-1.5a18,18,0,1,0-36,0c0,.50641.03473,1.00421.07574,1.5A17.99179,17.99179,0,0,1,41,26Z" style="fill:#fff;fill-rule:evenodd"/></g><g style="opacity:0.2"><path d="M41,56A17.99183,17.99183,0,0,1,23.07574,39.5C23.03472,39.99579,23,40.49359,23,41a18,18,0,0,0,36,0c0-.50641-.03473-1.00421-.07574-1.5A17.99183,17.99183,0,0,1,41,56Z" style="fill:#2c4b75;fill-rule:evenodd"/><path d="M46.08422,23.74023A17.978,17.978,0,0,0,23.73913,46.07977,14.18051,14.18051,0,0,0,27.438,43.42419L43.43078,27.433A14.18308,14.18308,0,0,0,46.08422,23.74023Z" style="fill:#2c4b75;fill-rule:evenodd"/></g><path d="M43.41139,23.2994a17.927,17.927,0,1,1-20.1096,20.144L27,26Z" style="fill:none;stroke:#6d6daa;stroke-linecap:round;stroke-linejoin:round;stroke-width:2px;fill-rule:evenodd"/><line style="fill:none;stroke:#6d6daa;stroke-linecap:round;stroke-linejoin:round;stroke-width:2px" x1="26" x2="59" y1="41" y2="41"/><path d="M13.28,13.27l-.1-.1,7.99-7.99A14.32246,14.32246,0,0,1,41.43,25.43l-8,8-.1-.1L16.375,29.38375Z" style="fill:#ff9797"/><path d="M33.33,33.33l.1.1-7.99,7.99A14.32246,14.32246,0,0,1,5.18,21.17l8-8,.1.1Z" style="fill:#c9c1f5"/><path d="M33.59309,33.12119l7.741-7.73729a14.33633,14.33633,0,0,0,3.25039-15.12743c.58336,4.28183-1.9785,7.54847-5.25085,10.82537L30.29194,30.1192Z" style="fill:#750000;opacity:0.2"/><path d="M18.4517.07529H18.532a3.53147,3.53147,0,0,1,3.53147,3.53147V34.31884A3.53146,3.53146,0,0,1,18.532,37.85031H18.4517a3.53146,3.53146,0,0,1-3.53146-3.53146V3.60675A3.53146,3.53146,0,0,1,18.4517.07529Z" style="fill:#fff;opacity:0.5" transform="translate(18.82486 -7.52163) rotate(45.00001)"/><rect height="23.63967" rx="1.15088" ry="1.15088" style="fill:#fff;opacity:0.5" transform="translate(29.11718 -12.61617) rotate(44.99998)" width="2.32793" x="28.6237" y="17.01964"/><path d="M33.478,33.23239l-3.23014-3.15732-6.91608,6.91276c-5.55452,5.55452-13.36847,6.83191-18.93067,1.27739a14.1287,14.1287,0,0,1-3.25016-5.08265A14.1856,14.1856,0,0,0,5.16827,41.334a14.33621,14.33621,0,0,0,20.20806,0Z" style="fill:#2c4b75;opacity:0.2"/><path d="M25.438,41.4242a14.37018,14.37018,0,0,1-20.25961,0v-.0011a14.36344,14.36344,0,0,1,0-20.2557l15.994-15.989a14.36671,14.36671,0,0,1,20.2584,0h0a14.36209,14.36209,0,0,1,0,20.2546Z" style="fill:none;stroke:#6d6daa;stroke-linecap:round;stroke-linejoin:round;stroke-width:2px;fill-rule:evenodd"/><line style="fill:none;stroke:#6d6daa;stroke-linecap:round;stroke-linejoin:round;stroke-width:2px" x1="21.47239" x2="33.33319" y1="21.4681" y2="33.3288"/><line style="fill:none;stroke:#6d6daa;stroke-linecap:round;stroke-linejoin:round;stroke-width:2px" x1="16.79239" x2="18.87889" y1="16.7881" y2="18.8746"/><line style="fill:none;stroke:#6d6daa;stroke-linecap:round;stroke-linejoin:round;stroke-width:2px" x1="13.276" x2="15.12749" y1="13.2717" y2="15.1232"/></svg>