<?xml version="1.0" ?><svg id="Layer_1" style="enable-background:new 0 0 64 64;" version="1.1" viewBox="0 0 64 64" xml:space="preserve" xmlns="http://www.w3.org/2000/svg" xmlns:xlink="http://www.w3.org/1999/xlink"><style type="text/css">
	.st0{fill:#D9DCE1;}
	.st1{fill:#FFFFFF;}
	.st2{fill:#56AAFF;}
	.st3{fill:#0478ED;}
	.st4{fill:none;stroke:#FFFFFF;stroke-width:2;stroke-linecap:square;stroke-miterlimit:10;}
	.st5{fill:none;stroke:#0478ED;stroke-width:2;stroke-linecap:square;stroke-miterlimit:10;}
	.st6{fill:none;stroke:#D9DCE1;stroke-width:4;stroke-miterlimit:10;}
	.st7{fill:none;stroke:#D9DCE1;stroke-width:3;stroke-miterlimit:10;}
	.st8{fill:none;stroke:#FFFFFF;stroke-width:5.9327;stroke-linecap:round;stroke-miterlimit:10;}
	.st9{fill:none;stroke:#56AAFF;stroke-width:4.7417;stroke-linecap:round;stroke-miterlimit:10;}
	.st10{fill:none;stroke:#FFFFFF;stroke-width:3;stroke-linecap:square;stroke-linejoin:round;stroke-miterlimit:10;}
	.st11{fill:none;stroke:#56AAFF;stroke-width:2;stroke-linecap:square;stroke-linejoin:round;stroke-miterlimit:10;}
	.st12{fill:none;stroke:#0478ED;stroke-width:4.4333;stroke-linecap:round;stroke-miterlimit:10;}
	.st13{fill:none;stroke:#56AAFF;stroke-width:3.5433;stroke-linecap:round;stroke-miterlimit:10;}
	.st14{fill-rule:evenodd;clip-rule:evenodd;fill:#0478ED;}
	.st15{fill-rule:evenodd;clip-rule:evenodd;fill:#FFFFFF;}
	.st16{fill:none;stroke:#56AAFF;stroke-width:5;stroke-miterlimit:10;}
	.st17{fill:none;stroke:#56AAFF;stroke-width:8;stroke-miterlimit:10;}
	.st18{fill:none;stroke:#56AAFF;stroke-width:4;stroke-miterlimit:10;}
	.st19{fill:none;stroke:#56AAFF;stroke-width:3;stroke-miterlimit:10;}
	.st20{fill:none;stroke:#D9DCE1;stroke-width:2;stroke-miterlimit:10;}
	
		.st21{fill:none;stroke:#D9DCE1;stroke-width:3;stroke-linecap:round;stroke-linejoin:round;stroke-miterlimit:10;stroke-dasharray:0.1,6;}
	.st22{fill:none;stroke:#56AAFF;stroke-width:3;stroke-linecap:round;stroke-miterlimit:10;}
	.st23{fill:none;stroke:#56AAFF;stroke-width:6;stroke-linecap:round;stroke-linejoin:round;stroke-miterlimit:10;}
	.st24{fill:none;stroke:#56AAFF;stroke-width:2;stroke-linecap:round;stroke-miterlimit:10;}
	.st25{fill:none;stroke:#56AAFF;stroke-width:4;stroke-linecap:round;stroke-linejoin:round;}
	.st26{fill:none;stroke:#56AAFF;stroke-width:4;stroke-linecap:round;stroke-linejoin:round;stroke-dasharray:9.594497e-02,3.8378;}
	.st27{fill:none;stroke:#0478ED;stroke-width:2.0129;stroke-linecap:square;stroke-miterlimit:10;}
</style><path class="st2" d="M39.9,27L26.7,47.8c-2.7,4.2-8.3,5.5-12.5,2.8l0,0c-4.2-2.7-5.5-8.3-2.8-12.5l13.2-20.8  c2.7-4.2,8.3-5.5,12.5-2.8l0,0C41.3,17.1,42.6,22.8,39.9,27z"/><path class="st3" d="M39.9,27l-6.6,10.4l-15.4-9.7l6.6-10.4c2.7-4.2,8.3-5.5,12.5-2.8l0,0C41.3,17.1,42.6,22.8,39.9,27z"/><path class="st0" d="M47,52H23c-5,0-9-4-9-9v0c0-5,4-9,9-9h24c5,0,9,4,9,9v0C56,48,52,52,47,52z"/><path class="st2" d="M47.2,52H35V34h12.2c5,0,9,4,9,9v0C56.2,48,52.1,52,47.2,52z"/><path class="st1" d="M30.8,43.6c0.7-1.5,0.8-3-0.4-4.2c-1.2-1.2-3.5-1-4.3,0.7c-0.8-1.7-3-1.8-4.3-0.7c-1.1,0.9-1.4,2.5-0.6,4.1  c1.3,2.7,3.7,4,4.6,4.5c0.2,0.1,0.5,0.1,0.7,0C27.3,47.5,29.5,46.1,30.8,43.6z"/></svg>