<?xml version="1.0" ?><svg viewBox="0 0 64 64" xmlns="http://www.w3.org/2000/svg"><g id="Blue"><path d="M20,17h4A10,10,0,0,1,34,27V57a4,4,0,0,1-4,4H14a4,4,0,0,1-4-4V27A10,10,0,0,1,20,17Z" style="fill:#cdeef6"/><rect height="4" style="fill:#7cb8eb" width="4" x="20" y="3"/><rect height="4" style="fill:#cdeef6" width="12" x="16" y="7"/><rect height="6" style="fill:#7cb8eb" width="4" x="20" y="11"/><rect height="8" style="fill:#7cb8eb" width="4" x="12" y="5"/><path d="M10,27v2H34V27A10,10,0,0,0,24,17H20A10,10,0,0,0,10,27Z" style="fill:#cdeef6"/><rect height="6" style="fill:#7cb8eb" width="24" x="10" y="29"/><path d="M18,46a3,3,0,0,1-3-3V41a3,3,0,0,1,6,0v2A3,3,0,0,1,18,46Zm0-6a1,1,0,0,0-1,1v2a1,1,0,0,0,2,0V41A1,1,0,0,0,18,40Z" style="fill:#4f83d1"/><path d="M29,46H24a1,1,0,0,1-1-1V44a1,1,0,0,1,.4-.8L27,40.5V40H25v1H23V39a1,1,0,0,1,1-1h4a1,1,0,0,1,1,1v2a1,1,0,0,1-.4.8L25.667,44H29Z" style="fill:#4f83d1"/><path d="M31,29H29V27a5.006,5.006,0,0,0-5-5H23V20h1a7.008,7.008,0,0,1,7,7Z" style="fill:#4f83d1"/><path d="M30,58H26V56h3V51h2v6A1,1,0,0,1,30,58Z" style="fill:#4f83d1"/><rect height="2" style="fill:#4f83d1" width="2" x="22" y="56"/><path d="M47,48H40a3,3,0,0,1-3-3V11a1,1,0,0,0-1-1H28V8h8a3,3,0,0,1,3,3V45a1,1,0,0,0,1,1h7a1,1,0,0,0,1-1V39h2v6A3,3,0,0,1,47,48Z" style="fill:#4f83d1"/><circle cx="49" cy="33" r="7" style="fill:#7cb8eb"/><rect height="2.828" style="fill:#83bbed" transform="translate(-8.154 42.314) rotate(-45)" width="2" x="46" y="29.586"/><circle cx="49" cy="33" r="2" style="fill:#fff"/><path d="M18,38a3,3,0,0,0-3,3v2a3,3,0,0,0,6,0V41A3,3,0,0,0,18,38Zm1,5a1,1,0,0,1-2,0V41a1,1,0,0,1,2,0Z" style="fill:#4f83d1"/><path d="M29,44H25.667L28.6,41.8A1,1,0,0,0,29,41V39a1,1,0,0,0-1-1H24a1,1,0,0,0-1,1v2h2V40h2v.5l-3.6,2.7a1,1,0,0,0-.4.8v1a1,1,0,0,0,1,1h5Z" style="fill:#4f83d1"/><path d="M29,56H26v2h4a1,1,0,0,0,1-1V51H29Z" style="fill:#4f83d1"/><rect height="2" style="fill:#4f83d1" width="2" x="22" y="56"/><path d="M49,25a8,8,0,0,0-1,15.931V45a1,1,0,0,1-1,1H40a1,1,0,0,1-1-1V11a3,3,0,0,0-3-3H29V7a1,1,0,0,0-1-1H25V3a1,1,0,0,0-1-1H20a1,1,0,0,0-1,1V6H17V5a1,1,0,0,0-1-1H12a1,1,0,0,0-1,1v8a1,1,0,0,0,1,1h4a1,1,0,0,0,1-1V12h2v4.051A11.01,11.01,0,0,0,9,27V57a5.006,5.006,0,0,0,5,5H30a5.006,5.006,0,0,0,5-5V27A11.01,11.01,0,0,0,25,16.051V12h3a1,1,0,0,0,1-1V10h7a1,1,0,0,1,1,1V45a3,3,0,0,0,3,3h7a3,3,0,0,0,3-3V40.931A8,8,0,0,0,49,25ZM21,4h2V6H21Zm-6,8H13V6h2ZM33,30v4H11V30ZM30,60H14a3,3,0,0,1-3-3V36H33V57A3,3,0,0,1,30,60Zm3-33v1H31V27a7.008,7.008,0,0,0-7-7H23v2h1a5.006,5.006,0,0,1,5,5v1H11V27a9.01,9.01,0,0,1,9-9h4A9.01,9.01,0,0,1,33,27ZM23,16H21V12h2Zm4-6H17V8H27ZM49,39a6,6,0,1,1,6-6A6.006,6.006,0,0,1,49,39Z" style="fill:#4f83d1"/><path d="M49,30a2.951,2.951,0,0,0-1.285.3l-1.008-1.008-1.414,1.414L46.3,31.715A2.951,2.951,0,0,0,46,33a3,3,0,1,0,3-3Zm0,4a1,1,0,1,1,1-1A1,1,0,0,1,49,34Z" style="fill:#4f83d1"/></g></svg>