<?xml version="1.0" ?><!DOCTYPE svg  PUBLIC '-//W3C//DTD SVG 1.1//EN'  'http://www.w3.org/Graphics/SVG/1.1/DTD/svg11.dtd'><svg height="64px" id="Image" style="enable-background:new 0 0 64 64;" version="1.1" viewBox="0 0 64 64" width="64px" xml:space="preserve" xmlns="http://www.w3.org/2000/svg" xmlns:xlink="http://www.w3.org/1999/xlink"><g><g><path d="M31.854,22.903L24,8.835    L9.9,34.105C8.69,36.286,8,38.765,8,41.406c0,8.52,7.16,15.43,16,15.43c5.65,0,10.62-2.83,13.46-7.1" style="fill:none;stroke:#424242;stroke-width:2;stroke-linejoin:round;stroke-miterlimit:10;"/><line style="fill:none;" x1="33.15" x2="31.854" y1="25.225" y2="22.903"/><line style="fill:none;stroke:#424242;stroke-width:2;stroke-linecap:round;stroke-linejoin:round;stroke-miterlimit:10;" x1="14.272" x2="16.953" y1="36.532" y2="31.726"/><path d="    M23.251,51.812c-5.215-0.335-9.447-4.131-10.149-8.979" style="fill:none;stroke:#424242;stroke-width:2;stroke-linecap:round;stroke-linejoin:round;stroke-miterlimit:10;"/></g><circle cx="39" cy="36.836" r="13" style="fill:none;stroke:#424242;stroke-width:2;stroke-linecap:round;stroke-linejoin:round;stroke-miterlimit:10;"/><line style="fill:none;stroke:#424242;stroke-width:2;stroke-linecap:round;stroke-linejoin:round;stroke-miterlimit:10;" x1="56" x2="48.19" y1="53.835" y2="46.026"/><path d="   M46.022,35.725c-1.729-1.572-5.155-1.006-7.652,1.266c-2.498,2.27-3.12,5.384-1.391,6.955c1.729,1.571,5.154,1.006,7.652-1.266   C47.128,40.411,47.75,37.296,46.022,35.725z" style="fill:none;stroke:#424242;stroke-width:2;stroke-linecap:round;stroke-linejoin:round;stroke-miterlimit:10;"/><path d="   M44.003,37.945c0.09,0.237-0.152,1.391-1.39,2.515c-1.116,1.015-2.309,1.376-3.054,1.376l0,0" style="fill:none;stroke:#424242;stroke-width:2;stroke-linecap:round;stroke-linejoin:round;stroke-miterlimit:10;"/><path d="   M39.97,35.835c0.01-0.07,0.02-0.13,0.02-0.2c0.17-3.31-1.7-5.91-4.18-5.8s-4.63,2.88-4.8,6.2c-0.17,3.31,1.7,5.91,4.18,5.8   c0.28-0.01,0.55-0.06,0.82-0.14" style="fill:none;stroke:#424242;stroke-width:2;stroke-linecap:round;stroke-linejoin:round;stroke-miterlimit:10;"/><path d="   M35.943,32.833c-0.624,0.027-1.833,1.323-1.938,3.356c-0.009,0.166-0.009,0.325-0.002,0.478" style="fill:none;stroke:#424242;stroke-width:2;stroke-linecap:round;stroke-linejoin:round;stroke-miterlimit:10;"/></g></svg>