<?xml version="1.0" ?><!DOCTYPE svg  PUBLIC '-//W3C//DTD SVG 1.1//EN'  'http://www.w3.org/Graphics/SVG/1.1/DTD/svg11.dtd'><svg enable-background="new 0 0 91 91" height="91px" id="Layer_1" version="1.1" viewBox="0 0 91 91" width="91px" xml:space="preserve" xmlns="http://www.w3.org/2000/svg" xmlns:xlink="http://www.w3.org/1999/xlink"><g><path d="M48.267,73.9c0.467,0,0.995-0.158,1.572-0.592c7.396-5.277,13.465-10.363,18.555-15.549   c0.658-0.67,0.648-1.746-0.022-2.404c-0.67-0.657-1.747-0.646-2.403,0.022c-4.851,4.942-10.635,9.804-17.682,14.86   c-6.785-4.889-12.128-9.34-16.771-13.967c-0.665-0.662-1.741-0.66-2.404,0.004c-0.663,0.666-0.661,1.742,0.004,2.404   c4.911,4.895,10.563,9.582,17.793,14.755C47.259,73.683,47.72,73.9,48.267,73.9z" fill="#010101"/><path d="M14.619,52.631h17.437c0.544,0,1.055-0.26,1.375-0.699l3.301-4.54l3.008,10.114   c0.215,0.723,0.879,1.216,1.63,1.216c0.012,0,0.024-0.001,0.037-0.001c0.767-0.017,1.426-0.543,1.612-1.287l3.41-13.635   l2.395,10.644c0.153,0.681,0.707,1.2,1.396,1.307c0.7,0.112,1.377-0.219,1.729-0.82l2.787-4.759l0.597,1.42   c0.266,0.631,0.883,1.041,1.567,1.041h15.239c0.6,0,1.124-0.313,1.427-0.781c0.064-0.062,0.131-0.121,0.187-0.193   c1.229-1.633,2.249-3.221,3.12-4.856c0.995-1.876,2.13-4.394,2.063-7.239c-0.149-6.229-2.621-11.367-7.347-15.271   c-6.256-5.17-15.648-4.683-21.384,1.107c-0.688,0.696-1.318,1.461-1.899,2.308c-3.583-5.264-9.648-7.882-15.965-6.736   c-4.94,0.898-8.823,3.615-11.542,8.074c-3.092,5.078-3.906,9.814-2.491,14.48c0.272,0.898,1.228,1.404,2.12,1.133   c0.898-0.273,1.406-1.223,1.134-2.121c-1.118-3.686-0.418-7.52,2.141-11.723c2.191-3.596,5.303-5.781,9.245-6.498   c5.488-0.998,10.744,1.643,13.391,6.713c0.127,0.248,0.254,0.486,0.464,0.875c0.302,0.563,0.908,0.891,1.528,0.896   c0.638-0.012,1.214-0.379,1.495-0.95c0.816-1.664,1.705-2.955,2.797-4.059c4.435-4.475,11.971-4.869,16.801-0.878   c3.933,3.248,5.989,7.53,6.114,12.729c0.048,2.045-0.816,3.961-1.668,5.563c-0.718,1.35-1.563,2.673-2.559,4.026H58.028   l-1.476-3.51c-0.25-0.594-0.813-0.994-1.455-1.037c-0.653-0.041-1.254,0.281-1.579,0.837l-2.325,3.97l-3.02-13.422   c-0.173-0.768-0.851-1.316-1.638-1.326c-0.778-0.049-1.479,0.523-1.67,1.287l-3.639,14.553l-2.218-7.458   c-0.185-0.62-0.705-1.081-1.343-1.19c-0.641-0.107-1.282,0.152-1.662,0.676l-4.815,6.621h-16.57c-0.938,0-1.7,0.762-1.7,1.701   C12.919,51.87,13.681,52.631,14.619,52.631z" fill="#010101"/></g></svg>