<?xml version="1.0" ?><svg id="Layer_1" style="enable-background:new 0 0 30 30;" version="1.1" viewBox="0 0 30 30" xml:space="preserve" xmlns="http://www.w3.org/2000/svg" xmlns:xlink="http://www.w3.org/1999/xlink"><g><path d="M5.6019182,18.2110119c3.2639446,3.2452831,8.3186054,3.4070263,11.7600088,0.7399902   c0.0013428-0.0010986,0.0025635-0.0021362,0.0039063-0.0032349l0.7004395,0.7004395   c-0.5332031,1.1737061-0.3249512,2.6057739,0.6434326,3.5656128l2.8469238,2.8580322   c1.2647552,1.264883,3.2828732,1.2339725,4.5169678,0c1.237915-1.2491455,1.237915-3.2678223,0-4.5169067l-2.8581543-2.8469849   c-0.9299316-0.9299927-2.3883057-1.133667-3.560791-0.6275635l-0.7058105-0.7058105   c0.0009766-0.0012207,0.0020752-0.0023193,0.0030518-0.00354c2.6952343-3.4464397,2.5066051-8.5426493-0.7401123-11.7700195   c-1.6799316-1.6900022-3.9199209-2.6099851-6.2999258-2.6099851c-2.3699951,0-4.6199951,0.9199829-6.2999268,2.6099851   C2.1060765,9.1067514,2.1505933,14.7802534,5.6019182,18.2110119z M7.4118547,7.391005   c2.4801025-2.4699707,6.5200195-2.4699707,9.0100088,0c2.4700928,2.4899907,2.4700928,6.5300298,0,9.0200195   c-2.4966831,2.4766922-6.519805,2.4799099-9.0299063,0.0100098C4.9218645,13.9310446,4.9218645,9.8809958,7.4118547,7.391005z"/><path d="M9.3985491,12.9035788h1.5097656v1.5097656c0,0.5527344,0.4472656,1,1,1s1-0.4472656,1-1v-1.5097656h1.5107422   c0.5527344,0,1-0.4472656,1-1s-0.4472656-1-1-1h-1.5107422V9.3928366c0-0.5527344-0.4472656-1-1-1s-1,0.4472656-1,1v1.5107422   H9.3985491c-0.5527344,0-1,0.4472656-1,1S8.8458147,12.9035788,9.3985491,12.9035788z"/></g></svg>