<?xml version="1.0" ?><svg id="icons" viewBox="0 0 340 340" xmlns="http://www.w3.org/2000/svg"><path d="M229.653,206.529h28.063a0,0,0,0,1,0,0V336.491a14.031,14.031,0,0,1-14.031,14.031h0a14.031,14.031,0,0,1-14.031-14.031V206.529a0,0,0,0,1,0,0Z" style="fill:#6b6b84" transform="translate(-126.217 289.992) rotate(-50.593)"/><circle cx="119.818" cy="184.109" r="110.16" style="fill:#dce8f0"/><circle cx="119.818" cy="184.109" r="87.978" style="fill:#fff"/><path d="M139.864,125.493H96.337a7.8,7.8,0,0,0-7.8,7.742l-.156,20.779h13.975V139.253h31.491v14.761h13.975l-.156-20.779A7.8,7.8,0,0,0,139.864,125.493Z" style="fill:#6b6b84"/><path d="M62.962,203.2v21.851a8.811,8.811,0,0,0,8.811,8.811h92.655a8.811,8.811,0,0,0,8.811-8.811V203.2C135.347,198.516,98.534,198.292,62.962,203.2Z" style="fill:#82b6f5"/><rect height="23.055" style="fill:#5187d6" width="110.277" x="62.962" y="180.142"/><path d="M102.43,211.4h34.775a11.755,11.755,0,0,0,11.756-11.755V187.8H90.674v11.845A11.756,11.756,0,0,0,102.43,211.4Z" style="fill:#5187d6"/><rect height="37.801" rx="8.669" style="fill:#82b6f5" width="110.277" x="62.962" y="152.014"/><path d="M101.581,189.816h36.474a0,0,0,0,1,0,0v5.534a7.847,7.847,0,0,1-7.847,7.847H109.428a7.847,7.847,0,0,1-7.847-7.847v-5.534A0,0,0,0,1,101.581,189.816Z" style="fill:#ffbe67"/><path d="M321.308,10.652H225.879a9.035,9.035,0,0,0-9.035,9.035v75.3a9.035,9.035,0,0,0,9.035,9.035h36.667l-15.055,32.357,55.81-32.357h18.007a9.036,9.036,0,0,0,9.035-9.035v-75.3A9.036,9.036,0,0,0,321.308,10.652Z" style="fill:#ffbe67"/><circle cx="250.783" cy="57.944" r="3.687" style="fill:#fff"/><circle cx="273.593" cy="57.944" r="3.687" style="fill:#fff"/><circle cx="296.404" cy="57.944" r="3.687" style="fill:#fff"/><path d="M119.818,297.769a113.283,113.283,0,0,0,79.773-32.782l77.751,63.883A17.532,17.532,0,0,0,299.6,301.778l-79.1-64.986a113.644,113.644,0,1,0-100.687,60.977Zm175.339,9.418a10.532,10.532,0,0,1-13.372,16.274l-77.351-63.554a114.272,114.272,0,0,0,12.578-16.927ZM119.818,77.448A106.661,106.661,0,1,1,13.157,184.108,106.781,106.781,0,0,1,119.818,77.448Z" style="fill:#3c3c4f"/><path d="M119.818,275.587a91.479,91.479,0,1,0-91.479-91.479A91.582,91.582,0,0,0,119.818,275.587Zm0-175.957a84.479,84.479,0,1,1-84.479,84.478A84.574,84.574,0,0,1,119.818,99.63Z" style="fill:#3c3c4f"/><path d="M71.773,237.359h92.655a12.325,12.325,0,0,0,12.311-12.311V201.386a3.5,3.5,0,0,0-7,0v23.662a5.316,5.316,0,0,1-5.311,5.311H71.773a5.316,5.316,0,0,1-5.311-5.311v-32.9a12.08,12.08,0,0,0,5.169,1.168h26.45v2.035A11.36,11.36,0,0,0,109.428,206.7h20.78a11.361,11.361,0,0,0,11.347-11.347v-2.035H164.57a12.183,12.183,0,0,0,12.169-12.168V160.683a12.183,12.183,0,0,0-12.169-12.169H151.28l-.115-15.306a11.331,11.331,0,0,0-11.3-11.215H96.336a11.331,11.331,0,0,0-11.3,11.215l-.115,15.306H71.631a12.183,12.183,0,0,0-12.169,12.169v64.365A12.325,12.325,0,0,0,71.773,237.359Zm62.782-42.009a4.352,4.352,0,0,1-4.347,4.347h-20.78a4.352,4.352,0,0,1-4.347-4.347v-2.035h29.474ZM92.036,133.261a4.312,4.312,0,0,1,4.3-4.268h43.528a4.313,4.313,0,0,1,4.3,4.268l.114,15.253h-6.933v-9.261a3.5,3.5,0,0,0-3.5-3.5H102.355a3.5,3.5,0,0,0-3.5,3.5v9.261H91.922Zm38.31,15.253H105.855v-5.761h24.491ZM66.462,160.683a5.175,5.175,0,0,1,5.169-5.169H164.57a5.175,5.175,0,0,1,5.169,5.169v20.464a5.174,5.174,0,0,1-5.169,5.168H71.631a5.174,5.174,0,0,1-5.169-5.168V160.683Z" style="fill:#3c3c4f"/><path d="M321.308,7.152h-95.43a12.549,12.549,0,0,0-12.534,12.536v75.3a12.549,12.549,0,0,0,12.534,12.535h31.179L244.318,134.9a3.5,3.5,0,0,0,4.929,4.5l55-31.885h17.065a12.549,12.549,0,0,0,12.535-12.535v-75.3A12.549,12.549,0,0,0,321.308,7.152Zm5.535,87.834a5.541,5.541,0,0,1-5.535,5.535H303.3a3.5,3.5,0,0,0-1.755.473l-46.191,26.779L265.719,105.5a3.5,3.5,0,0,0-3.173-4.977H225.878a5.54,5.54,0,0,1-5.534-5.535v-75.3a5.541,5.541,0,0,1,5.534-5.536h95.43a5.541,5.541,0,0,1,5.535,5.536Z" style="fill:#3c3c4f"/></svg>