<?xml version="1.0" ?><svg id="Layer_1" style="enable-background:new 0 0 64 64;" version="1.0" viewBox="0 0 64 64" xml:space="preserve" xmlns="http://www.w3.org/2000/svg" xmlns:xlink="http://www.w3.org/1999/xlink"><style type="text/css">
	.st0{fill:#2D7ABF;}
	.st1{fill:#2D3E55;}
</style><g><path class="st1" d="M41.6,9.4C34.9,0.7,22.5-1,13.7,5.6C5,12.2,3.3,24.7,9.9,33.4c3.9,5.1,9.8,7.9,15.9,7.9c4.2,0,8.4-1.3,12-4   C46.5,30.6,48.2,18.2,41.6,9.4z M35.1,33.8c-6.8,5.2-16.5,3.8-21.7-3c-5.2-6.8-3.8-16.5,3-21.7c2.8-2.1,6.1-3.1,9.3-3.1   c4.7,0,9.3,2.1,12.4,6.1C43.2,18.9,41.9,28.6,35.1,33.8z"/><path class="st0" d="M57,53.8L44.4,37.2c-0.9-1.2-2.5-1.4-3.7-0.5L36.3,40c-1.2,0.9-1.4,2.5-0.5,3.7l12.6,16.6   c1.8,2.4,5.2,2.8,7.6,1C58.4,59.5,58.8,56.1,57,53.8z"/></g></svg>