<?xml version="1.0" ?><svg data-name="Layer 1" id="Layer_1" viewBox="0 0 32 32" xmlns="http://www.w3.org/2000/svg"><title/><path d="M24.5,2A5.51,5.51,0,0,0,19,7.5V24a4,4,0,0,1-8,0V19.93A8,8,0,0,0,18,12V9a1,1,0,0,0-.17-.55l-4-6A1,1,0,0,0,13,2H7a1,1,0,0,0-.83.45l-4,6A1,1,0,0,0,2,9v3a8,8,0,0,0,7,7.93V24a6,6,0,0,0,12,0V7.5a3.5,3.5,0,0,1,7,0V15a1,1,0,0,0,2,0V7.5A5.51,5.51,0,0,0,24.5,2ZM9,13V11h2v2ZM4,12V9.3L7.54,4h4.93L16,9.3V12a6,6,0,0,1-5,5.91V15h1a1,1,0,0,0,1-1V10a1,1,0,0,0-1-1H8a1,1,0,0,0-1,1v4a1,1,0,0,0,1,1H9v2.91A6,6,0,0,1,4,12Z"/><path d="M9,8h2a1,1,0,0,0,0-2H9A1,1,0,0,0,9,8Z"/></svg>